<?xml version="1.0" encoding="UTF-8"?>
<svg width="14px" height="14px" viewBox="0 0 14 14" version="1.1" xmlns="http://www.w3.org/2000/svg" xmlns:xlink="http://www.w3.org/1999/xlink">
    <title>icon-del</title>
    <g  stroke="none" stroke-width="1" fill="none" fill-rule="evenodd">
        <g class="icon-del" transform="translate(-605.000000, -551.000000)" fill="#FFFFFF" fill-rule="nonzero">
            <path d="M615.27832,552.048233 L611.995,555.332 L608.712435,552.048986 C607.977246,551.313797 606.784237,551.313797 606.045909,552.048986 L605.930165,552.175624 C605.312864,552.915506 605.351445,554.01874 606.045909,554.713204 L609.331,557.997 L606.048216,561.280642 C605.312902,562.015957 605.312902,563.209546 606.048216,563.94486 C606.406325,564.302969 606.883961,564.4975 607.380326,564.4975 L607.544948,564.490338 C607.981356,564.452251 608.394116,564.263179 608.712435,563.94486 L611.996,560.661 L615.279873,563.94486 C615.637982,564.302969 616.115618,564.4975 616.611982,564.4975 C617.108347,564.4975 617.585983,564.302969 617.944091,563.94486 L618.059835,563.818222 C618.677136,563.07834 618.638555,561.975106 617.944091,561.280642 L614.66,557.997 L617.944091,554.713204 C618.679405,553.97789 618.679405,552.7843 617.944091,552.048986 C617.208903,551.313797 616.015894,551.313797 615.27832,552.048233 Z" id="icon-del"></path>
        </g>
    </g>
</svg>