<svg xmlns="http://www.w3.org/2000/svg" width="20" height="20" viewBox="0 0 20 20">
    <g fill="none" fill-rule="evenodd">
        <g class="icon-del"fill="#696969" fill-rule="nonzero">
            <g>
                <g>
                    <path d="M37.75 17c.69 0 1.25.551 1.25 1.23 0 .68-.56 1.232-1.25 1.232H36.5v9.846c0 2.039-1.679 3.692-3.75 3.692h-7.5c-2.071 0-3.75-1.653-3.75-3.692v-9.846h-1.25c-.69 0-1.25-.551-1.25-1.231S19.56 17 20.25 17zM34 19.462H24v9.846c0 .68.56 1.23 1.25 1.23h7.5c.69 0 1.25-.55 1.25-1.23v-9.846zM31.667 13c.736 0 1.333.672 1.333 1.5s-.597 1.5-1.333 1.5h-5.334C25.597 16 25 15.328 25 14.5s.597-1.5 1.333-1.5z" transform="translate(-580 -625) translate(405 533) translate(156 79)"/>
                </g>
            </g>
        </g>
    </g>
</svg>
